<svg xmlns="http://www.w3.org/2000/svg" width="80" height="80" viewBox="0 0 80 80">
    <g fill="none" fill-rule="evenodd">
        <circle cx="40" cy="40" r="40" fill="#E20613"/>
        <path fill="#FFF" fill-rule="nonzero" d="M38.122 23.834h-7.287v-2.572l-7.144 5.144 7.144 5v-2.572h7.287v-5zm-6.573 26.433c-.571-.572-1.143-1.286-1.714-1.858-1.858-1.714-10.43 6.859-8.573 8.573.571.715 1.429 1.286 2.143 1.715 1-1.572 2.143-3.144 3.286-4.43 1.43-1.571 3.144-2.857 4.858-4zm2.715 2.572l-1.429-1.43c-1.857 1.144-3.429 2.43-4.858 4.002-1.143 1.285-2.143 2.571-3 4 14.43 4.715 39.15-20.003 34.434-34.434-1.429.857-2.715 1.857-4 3-1.572 1.429-2.858 3-4.001 4.858l1.429 1.429c2.286 2.286-16.289 20.86-18.575 18.575zm16.003-21.29c-.572-.571-1.286-1.143-1.858-1.714-1.714-1.858 6.859-10.43 8.573-8.573.715.571 1.286 1.429 1.715 2.143-1.572 1-3.144 2.143-4.43 3.286-1.571 1.43-2.857 3.144-4 4.858zM23.69 40.265h7.287v2.429l7.144-5-7.144-5.145v2.572H23.69v5.144z"/>
    </g>
</svg>
