<svg xmlns="http://www.w3.org/2000/svg" width="30" height="48" viewBox="0 0 30 48">
    <path fill="#FFF" fill-rule="nonzero" d="M23.571.571H6.43C2.879.571 0 3.441 0 6.981v34.181c0 3.54 2.878 6.41 6.429 6.41H23.57c3.55 0 6.429-2.87 6.429-6.41V6.981C30 3.44 27.122.57 23.571.57zm-4.285 21.364a2.14 2.14 0 0 1 2.143 2.136v6.41a2.14 2.14 0 0 1-2.143 2.136h-2.143v2.136A2.14 2.14 0 0 1 15 36.89a2.14 2.14 0 0 1-2.143-2.137v-2.136h-2.143a2.14 2.14 0 0 1-2.143-2.136c0-1.18.96-2.137 2.143-2.137h6.429v-2.136h-6.429a2.14 2.14 0 0 1-2.143-2.137v-6.409c0-1.18.96-2.136 2.143-2.136h2.143V13.39c0-1.18.96-2.137 2.143-2.137a2.14 2.14 0 0 1 2.143 2.137v2.136h2.143a2.14 2.14 0 0 1 2.143 2.136 2.14 2.14 0 0 1-2.143 2.137h-6.429v2.136h6.429z"/>
</svg>
