<svg xmlns="http://www.w3.org/2000/svg" width="80" height="80" viewBox="0 0 80 80">
    <g fill="none" fill-rule="evenodd">
        <circle cx="40" cy="40" r="40" fill="#E20613"/>
        <g fill="#FFF" fill-rule="nonzero">
            <path d="M39.4 30c-3.582 0-6.5 2.918-6.5 6.5s2.918 6.5 6.5 6.5 6.5-2.918 6.5-6.5-2.874-6.5-6.5-6.5z"/>
            <path d="M39.943 20C28.861 20 19.9 28.961 19.9 40s8.961 20 20 20 20-8.961 20-20c.043-11.039-8.961-20-19.957-20zm12.77 29.307l-.649.91-.52-.996c-1.038-2.035-2.856-3.29-4.848-3.29H33.103c-1.991 0-3.81 1.212-4.848 3.29l-.52.995-.649-.909A15.736 15.736 0 0 1 24.056 40c0-8.745 7.1-15.844 15.887-15.844 8.745 0 15.844 7.1 15.844 15.844 0 3.377-1.039 6.58-3.073 9.307z"/>
        </g>
    </g>
</svg>
