<svg xmlns="http://www.w3.org/2000/svg" width="80" height="80" viewBox="0 0 80 80">
    <g fill="none" fill-rule="evenodd">
        <circle cx="40" cy="40" r="40" fill="#E20613"/>
        <g fill="#FFF">
            <path d="M40.102 27C39.44 27 39 27.456 39 28.14v11.392c0 .455.22.911.66.911l7.932 4.33c.22 0 .44.227.44.227.441 0 .882-.228.882-.684.22-.455 0-1.139-.441-1.594l-7.27-3.874V28.14c0-.683-.44-1.139-1.101-1.139z"/>
            <path d="M41.299 17c-11.65 0-21.016 9.053-21.701 20.368H16.17c-1.142 0-1.599.68-.685 1.585l5.026 5.431c.913.905 2.284.905 2.97 0l5.025-5.431c.685-.906.228-1.585-.914-1.585h-3.426c.685-8.826 7.995-15.842 17.132-15.842 9.366 0 17.132 7.695 17.132 16.974S50.665 55.474 41.3 55.474c-3.655 0-7.081-1.132-10.051-3.169-.914-.679-2.513-.452-3.198.453s-.457 2.49.457 3.168C32.162 58.642 36.73 60 41.299 60 53.177 60 63 50.268 63 38.5S53.177 17 41.299 17z"/>
        </g>
    </g>
</svg>
