<svg xmlns="http://www.w3.org/2000/svg" width="80" height="80" viewBox="0 0 80 80">
    <g fill="none" fill-rule="evenodd">
        <circle cx="40" cy="40" r="40" fill="#E20613"/>
        <path fill="#FFF" fill-rule="nonzero" d="M40.076 21c-11.003 0-19.923 8.73-19.923 19.5 0 3.952 1.205 7.627 3.27 10.7L20 60l8.422-3.69A20.123 20.123 0 0 0 40.076 60C51.08 60 60 51.268 60 40.5 60 29.73 51.079 21 40.076 21zm1.904 28.608a.701.701 0 0 1-.257.455l-2.239 1.786a.691.691 0 0 1-.976-.118.711.711 0 0 1 .116-.99l.93-.741a10.179 10.179 0 0 1-5.536-2.908A10.451 10.451 0 0 1 31 39.705a.7.7 0 0 1 .696-.705c.383 0 .695.316.695.705 0 2.414.927 4.683 2.61 6.39a8.81 8.81 0 0 0 4.7 2.5l-.716-.924a.711.711 0 0 1 .116-.99.688.688 0 0 1 .977.118l1.59 2.048a.704.704 0 0 1 .312.76zM48.305 42a.7.7 0 0 1-.696-.706c0-4.426-3.158-8.118-7.31-8.887l.715.921a.71.71 0 0 1-.116.99.69.69 0 0 1-.976-.118l-1.59-2.05a.706.706 0 0 1-.313-.756.705.705 0 0 1 .258-.457l2.238-1.786a.688.688 0 0 1 .977.119.71.71 0 0 1-.116.99l-.93.74c4.85.847 8.554 5.14 8.554 10.294a.7.7 0 0 1-.695.706z"/>
    </g>
</svg>
